# xmcd
#
# Track frame offsets: 
#        183
#        17600
#        34173
#
# Disc length: 684 seconds
#
# Revision: 1
# Processed by: cddbd v1.5.2PL0 Copyright (c) Steve Scherf et al.
# Submitted via: ExactAudioCopy v0.99pb5
#
DISCID=1902aa03
DTITLE=Clouseau - Close Encounters (Maxi CD)
DYEAR=1991
DGENRE=Pop
TTITLE0=Close Encounters
TTITLE1=She's After Me
TTITLE2=Close Encounters (Instrumental Version)
EXTD=
EXTT0=
EXTT1=
EXTT2=
PLAYORDER=
